<mxfile host="app.diagrams.net" agent="Mozilla/5.0 (Macintosh; Intel Mac OS X 10_15_7) AppleWebKit/537.36 (KHTML, like Gecko) Chrome/134.0.0.0 Safari/537.36" version="26.1.3">
  <diagram name="PaginÄƒ-1" id="FXfXDdoXFxuAoPadg0xI">
    <mxGraphModel dx="801" dy="455" grid="1" gridSize="10" guides="1" tooltips="1" connect="1" arrows="1" fold="1" page="1" pageScale="1" pageWidth="827" pageHeight="1169" math="0" shadow="0">
      <root>
        <mxCell id="0" />
        <mxCell id="1" parent="0" />
        <mxCell id="-KcUO6rlrHVI8XgF_A7A-2" value="" style="shape=or;whiteSpace=wrap;html=1;rotation=-90;fontStyle=3;fillColor=#dae8fc;strokeColor=#6c8ebf;" vertex="1" parent="1">
          <mxGeometry x="170" y="130" width="60" height="80" as="geometry" />
        </mxCell>
        <mxCell id="-KcUO6rlrHVI8XgF_A7A-3" value="" style="ellipse;whiteSpace=wrap;html=1;labelBackgroundColor=none;labelBorderColor=none;fillColor=#dae8fc;strokeColor=#6c8ebf;" vertex="1" parent="1">
          <mxGeometry x="155" y="100" width="90" height="50" as="geometry" />
        </mxCell>
        <mxCell id="-KcUO6rlrHVI8XgF_A7A-8" value="" style="edgeStyle=orthogonalEdgeStyle;rounded=0;orthogonalLoop=1;jettySize=auto;html=1;" edge="1" parent="1" source="-KcUO6rlrHVI8XgF_A7A-4" target="-KcUO6rlrHVI8XgF_A7A-6">
          <mxGeometry relative="1" as="geometry">
            <Array as="points">
              <mxPoint x="100" y="174" />
              <mxPoint x="100" y="320" />
            </Array>
          </mxGeometry>
        </mxCell>
        <mxCell id="-KcUO6rlrHVI8XgF_A7A-4" value="&lt;font style=&quot;font-size: 14px;&quot;&gt;&lt;b&gt;User&lt;/b&gt;&lt;/font&gt;&lt;div&gt;&lt;font style=&quot;font-size: 7px;&quot;&gt;[student, secretary, admin]&lt;/font&gt;&lt;/div&gt;" style="text;html=1;align=center;verticalAlign=middle;whiteSpace=wrap;rounded=0;" vertex="1" parent="1">
          <mxGeometry x="162.5" y="150" width="75" height="50" as="geometry" />
        </mxCell>
        <mxCell id="-KcUO6rlrHVI8XgF_A7A-6" value="" style="rounded=1;whiteSpace=wrap;html=1;fillColor=#d5e8d4;strokeColor=#82b366;" vertex="1" parent="1">
          <mxGeometry x="139" y="290" width="141" height="80" as="geometry" />
        </mxCell>
        <mxCell id="-KcUO6rlrHVI8XgF_A7A-19" style="edgeStyle=orthogonalEdgeStyle;rounded=0;orthogonalLoop=1;jettySize=auto;html=1;entryX=0.5;entryY=1;entryDx=0;entryDy=0;" edge="1" parent="1" source="-KcUO6rlrHVI8XgF_A7A-9" target="-KcUO6rlrHVI8XgF_A7A-13">
          <mxGeometry relative="1" as="geometry">
            <mxPoint x="440" y="320" as="targetPoint" />
          </mxGeometry>
        </mxCell>
        <mxCell id="-KcUO6rlrHVI8XgF_A7A-32" style="edgeStyle=orthogonalEdgeStyle;rounded=0;orthogonalLoop=1;jettySize=auto;html=1;entryX=0.5;entryY=0;entryDx=0;entryDy=0;" edge="1" parent="1" source="-KcUO6rlrHVI8XgF_A7A-9" target="-KcUO6rlrHVI8XgF_A7A-26">
          <mxGeometry relative="1" as="geometry" />
        </mxCell>
        <mxCell id="-KcUO6rlrHVI8XgF_A7A-9" value="&lt;b&gt;SmartSecretary&lt;/b&gt;&lt;div&gt;&lt;font style=&quot;font-size: 7px;&quot;&gt;[progressive web app]&lt;/font&gt;&lt;/div&gt;&lt;div&gt;&lt;font style=&quot;font-size: 7px;&quot;&gt;&lt;br&gt;&lt;/font&gt;&lt;/div&gt;&lt;div&gt;&lt;font style=&quot;font-size: 6px;&quot;&gt;Helps students with going through the university documents needed along the study years&lt;/font&gt;&lt;/div&gt;" style="text;html=1;align=center;verticalAlign=middle;whiteSpace=wrap;rounded=0;" vertex="1" parent="1">
          <mxGeometry x="139" y="290" width="141" height="80" as="geometry" />
        </mxCell>
        <mxCell id="-KcUO6rlrHVI8XgF_A7A-12" value="&lt;font style=&quot;font-size: 7px;&quot;&gt;logs into their university account and uses the app for&lt;/font&gt;&lt;div&gt;&lt;font style=&quot;font-size: 7px;&quot;&gt;certificate administration&amp;nbsp;&lt;/font&gt;&lt;/div&gt;" style="text;html=1;align=center;verticalAlign=middle;whiteSpace=wrap;rounded=0;labelBorderColor=none;labelBackgroundColor=default;" vertex="1" parent="1">
          <mxGeometry x="50" y="210" width="98.5" height="60" as="geometry" />
        </mxCell>
        <mxCell id="-KcUO6rlrHVI8XgF_A7A-13" value="" style="rounded=1;whiteSpace=wrap;html=1;fillColor=#f5f5f5;fontColor=#333333;strokeColor=#666666;" vertex="1" parent="1">
          <mxGeometry x="360" y="220" width="120" height="60" as="geometry" />
        </mxCell>
        <mxCell id="-KcUO6rlrHVI8XgF_A7A-22" style="edgeStyle=orthogonalEdgeStyle;rounded=0;orthogonalLoop=1;jettySize=auto;html=1;entryX=1;entryY=0.5;entryDx=0;entryDy=0;" edge="1" parent="1" source="-KcUO6rlrHVI8XgF_A7A-20" target="-KcUO6rlrHVI8XgF_A7A-4">
          <mxGeometry relative="1" as="geometry">
            <Array as="points">
              <mxPoint x="420" y="175" />
            </Array>
          </mxGeometry>
        </mxCell>
        <mxCell id="-KcUO6rlrHVI8XgF_A7A-20" value="&lt;b&gt;E-mail Software&lt;/b&gt;&lt;div&gt;&lt;font style=&quot;font-size: 7px;&quot;&gt;[external e-mail system]&lt;/font&gt;&lt;/div&gt;" style="text;html=1;align=center;verticalAlign=middle;whiteSpace=wrap;rounded=0;" vertex="1" parent="1">
          <mxGeometry x="360" y="220" width="120" height="60" as="geometry" />
        </mxCell>
        <mxCell id="-KcUO6rlrHVI8XgF_A7A-21" value="&lt;font style=&quot;font-size: 8px;&quot;&gt;Sends e-mails using&lt;/font&gt;" style="text;html=1;align=center;verticalAlign=middle;whiteSpace=wrap;rounded=0;labelBackgroundColor=default;" vertex="1" parent="1">
          <mxGeometry x="301" y="303" width="110" height="50" as="geometry" />
        </mxCell>
        <mxCell id="-KcUO6rlrHVI8XgF_A7A-23" value="&lt;font style=&quot;font-size: 8px;&quot;&gt;Sends e-mails to&lt;/font&gt;" style="text;html=1;align=center;verticalAlign=middle;whiteSpace=wrap;rounded=0;labelBackgroundColor=default;" vertex="1" parent="1">
          <mxGeometry x="280" y="148" width="110" height="50" as="geometry" />
        </mxCell>
        <mxCell id="-KcUO6rlrHVI8XgF_A7A-26" value="" style="rounded=1;whiteSpace=wrap;html=1;fillColor=#e1d5e7;strokeColor=#9673a6;" vertex="1" parent="1">
          <mxGeometry x="149" y="450" width="120" height="60" as="geometry" />
        </mxCell>
        <mxCell id="-KcUO6rlrHVI8XgF_A7A-29" value="&lt;div&gt;&lt;font style=&quot;&quot;&gt;&lt;b&gt;Chatbot - Pubble&lt;/b&gt;&lt;/font&gt;&lt;/div&gt;&lt;div&gt;&lt;font style=&quot;font-size: 7px;&quot;&gt;[software system]&lt;/font&gt;&lt;/div&gt;&lt;div&gt;&lt;font style=&quot;font-size: 7px;&quot;&gt;&lt;br&gt;&lt;/font&gt;&lt;/div&gt;" style="text;html=1;align=center;verticalAlign=middle;whiteSpace=wrap;rounded=0;" vertex="1" parent="1">
          <mxGeometry x="148" y="460" width="120" height="50" as="geometry" />
        </mxCell>
        <mxCell id="-KcUO6rlrHVI8XgF_A7A-33" value="&lt;span style=&quot;font-size: 7px;&quot;&gt;Offers additional help regarding documents and certificates&lt;/span&gt;" style="text;html=1;align=center;verticalAlign=middle;whiteSpace=wrap;rounded=0;labelBorderColor=none;labelBackgroundColor=default;" vertex="1" parent="1">
          <mxGeometry x="158.5" y="374" width="98.5" height="60" as="geometry" />
        </mxCell>
        <mxCell id="-KcUO6rlrHVI8XgF_A7A-34" value="&lt;b&gt;&lt;font style=&quot;font-size: 14px;&quot;&gt;Progressive web app for administrating certificates and documents&amp;nbsp;&lt;/font&gt;&lt;/b&gt;" style="text;html=1;align=center;verticalAlign=middle;whiteSpace=wrap;rounded=0;labelBorderColor=light-dark(#c7bdbd, #ededed);" vertex="1" parent="1">
          <mxGeometry x="8.5" y="530" width="561.5" height="30" as="geometry" />
        </mxCell>
      </root>
    </mxGraphModel>
  </diagram>
</mxfile>
